<mxfile host="app.diagrams.net" modified="2024-02-17T11:49:29.484Z" agent="Mozilla/5.0 (Windows NT 10.0; Win64; x64) AppleWebKit/537.36 (KHTML, like Gecko) Chrome/120.0.0.0 Safari/537.36 OPR/106.0.0.0" version="23.1.5" etag="mGWNq2km4kzbTOwBakcE" type="github">
  <diagram name="PÃ¡gina-1" id="r4AeNhzy6X6EYQfRBOso">
    <mxGraphModel>
      <root>
        <mxCell id="0" />
        <mxCell id="1" parent="0" />
      </root>
    </mxGraphModel>
  </diagram>
</mxfile>
